HIERARCHY
ROOT joint_Root
{
	OFFSET 0.0 0.0 0.0
	CHANNELS 6 Xposition Yposition Zposition Zrotation Xrotation Yrotation 
	JOINT Hips
	{
		OFFSET -17.1583 93.1646 452.98
		CHANNELS 6 Xposition Yposition Zposition Zrotation Xrotation Yrotation 
		JOINT Spine
		{
			OFFSET 15.7357 0.0 0.0
			CHANNELS 6 Xposition Yposition Zposition Zrotation Xrotation Yrotation 
			JOINT Chest
			{
				OFFSET 8.98455 -0.406207 0.0
				CHANNELS 6 Xposition Yposition Zposition Zrotation Xrotation Yrotation 
				JOINT Neck
				{
					OFFSET 16.3773 0.0 0.0
					CHANNELS 6 Xposition Yposition Zposition Zrotation Xrotation Yrotation 
					JOINT Head
					{
						OFFSET 6.45672 0.0 0.0
						CHANNELS 6 Xposition Yposition Zposition Zrotation Xrotation Yrotation 
						End Site
						{
							OFFSET 0.0 0.0 0.0
						}
					}
				}
				JOINT Shoulder_L
				{
					OFFSET 12.9942 -0.242716 4.98039
					CHANNELS 6 Xposition Yposition Zposition Zrotation Xrotation Yrotation 
					JOINT UpperArm_L
					{
						OFFSET 5.34809 0.0 0.0
						CHANNELS 6 Xposition Yposition Zposition Zrotation Xrotation Yrotation 
						JOINT LowerArm_L
						{
							OFFSET 24.3286 1.87007e-05 0.0
							CHANNELS 6 Xposition Yposition Zposition Zrotation Xrotation Yrotation 
							JOINT Hand_L
							{
								OFFSET 22.2916 0.0 0.0
								CHANNELS 6 Xposition Yposition Zposition Zrotation Xrotation Yrotation 
								End Site
								{
									OFFSET 0.0 0.0 0.0
								}
							}
						}
					}
				}
				JOINT Shoulder_R
				{
					OFFSET 12.9945 -0.242716 -4.98039
					CHANNELS 6 Xposition Yposition Zposition Zrotation Xrotation Yrotation 
					JOINT UpperArm_R
					{
						OFFSET -5.34813 0.0 0.0
						CHANNELS 6 Xposition Yposition Zposition Zrotation Xrotation Yrotation 
						JOINT LowerArm_R
						{
							OFFSET -24.3289 0.000322201 0.0
							CHANNELS 6 Xposition Yposition Zposition Zrotation Xrotation Yrotation 
							JOINT Hand_R
							{
								OFFSET -22.2915 -0.000108084 0.0
								CHANNELS 6 Xposition Yposition Zposition Zrotation Xrotation Yrotation 
								End Site
								{
									OFFSET 0.0 0.0 0.0
								}
							}
						}
					}
				}
			}
		}
		JOINT UpperLeg_L
		{
			OFFSET -2.19248 -6.46944 0.0
			CHANNELS 6 Xposition Yposition Zposition Zrotation Xrotation Yrotation 
			JOINT LowerLeg_L
			{
				OFFSET 39.0811 0.0 -1.23785e-05
				CHANNELS 6 Xposition Yposition Zposition Zrotation Xrotation Yrotation 
				JOINT Foot_L
				{
					OFFSET 40.9854 0.0 -1.26872e-05
					CHANNELS 6 Xposition Yposition Zposition Zrotation Xrotation Yrotation 
					JOINT Toes_L
					{
						OFFSET 11.7543 0.0 0.0
						CHANNELS 6 Xposition Yposition Zposition Zrotation Xrotation Yrotation 
						End Site
						{
							OFFSET 0.0 0.0 0.0
						}
					}
				}
			}
		}
		JOINT UpperLeg_R
		{
			OFFSET -2.19251 6.46944 0.0
			CHANNELS 6 Xposition Yposition Zposition Zrotation Xrotation Yrotation 
			JOINT LowerLeg_R
			{
				OFFSET -39.0811 -0.00228153 -0.0401928
				CHANNELS 6 Xposition Yposition Zposition Zrotation Xrotation Yrotation 
				JOINT Foot_R
				{
					OFFSET -40.9854 0.0 0.0
					CHANNELS 6 Xposition Yposition Zposition Zrotation Xrotation Yrotation 
					JOINT Toes_R
					{
						OFFSET -11.7543 0.0 0.0
						CHANNELS 6 Xposition Yposition Zposition Zrotation Xrotation Yrotation 
						End Site
						{
							OFFSET 0.0 0.0 0.0
						}
					}
				}
			}
		}
	}
}
MOTION
Frames:	4
Frame Time:	0.0333333
0.000000 0.000000 0.000000 0.000000 0.000000 -0.000000 162.600000 90.557400 218.541000 105.894000 -75.998000 12.848300 15.735700 0.000005 -0.000001 123.134000 85.753200 -123.450000 8.984550 -0.406207 -0.000000 -0.639797 4.664790 -0.606431 16.377300 -0.000001 -0.000001 3.877430 -3.621050 -1.503990 6.456720 -0.000001 -0.000000 -6.599030 -8.370860 -4.236830 12.994200 -0.242716 4.980390 -94.634800 10.414000 -65.844300 5.348090 -0.000007 -0.000001 -63.691300 -13.927500 17.063200 24.328600 0.000019 0.000005 1.160710 44.610000 -1.652950 22.291600 -0.000001 0.000005 -14.639300 5.010800 7.087410 12.994500 -0.242716 -4.980390 88.708800 3.519620 -69.839800 -5.348130 -0.000001 -0.000004 -64.103400 27.503600 -26.400800 -24.328900 0.000322 -0.000009 -6.993530 -6.221430 -48.537900 -22.291500 -0.000108 -0.000004 4.133510 5.493020 -6.255630 -2.192480 -6.469440 -0.000000 -176.007000 -10.268500 -22.824500 39.081100 -0.000007 -0.000012 -0.049429 0.136498 19.906500 40.985400 -0.000006 -0.000013 -8.954060 18.012200 -66.631900 11.754300 -0.000000 0.000003 0.002028 0.047786 -14.638400 -2.192510 6.469440 -0.000001 178.767000 -15.363200 -168.581000 -39.081100 -0.002282 -0.040193 -0.003055 0.015645 22.163300 -40.985400 0.000008 0.000006 9.068880 17.934400 -64.991400 -11.754300 -0.000006 -0.000006 -0.034670 -0.238120 -26.340600
0.000000 0.000000 0.000000 0.000000 0.000000 -0.000000 159.243000 89.779600 221.644000 108.116000 -75.485500 14.625600 15.735700 0.000005 -0.000001 117.921000 86.232000 -118.364000 8.984550 -0.406207 -0.000000 -1.093450 3.562270 -0.852611 16.377300 -0.000001 -0.000001 3.802680 -3.256090 -1.029450 6.456720 -0.000001 -0.000000 -7.526310 -7.368440 -3.955700 12.994200 -0.242716 4.980390 -94.815600 11.166200 -66.489300 5.348090 -0.000007 -0.000001 -62.130500 -13.477900 15.201800 24.328600 0.000019 0.000005 2.557930 40.148200 -3.964320 22.291600 -0.000001 0.000005 -9.170080 5.009590 7.114620 12.994500 -0.242716 -4.980390 88.141900 5.009240 -69.618000 -5.348130 -0.000001 -0.000004 -65.383400 23.652600 -21.108200 -24.328900 0.000322 -0.000009 -6.720520 -6.840190 -44.686100 -22.291500 -0.000108 -0.000004 3.714390 5.495110 -6.337660 -2.192480 -6.469440 -0.000000 -177.624000 -7.066960 -26.251000 39.081100 -0.000007 -0.000012 0.116218 -0.209956 28.966000 40.985400 -0.000006 -0.000013 -5.546950 15.909500 -65.707800 11.754300 -0.000000 0.000003 0.002391 0.067332 -13.845900 -2.192510 6.469440 -0.000001 177.112000 -14.205200 -169.254000 -39.081100 -0.002282 -0.040193 -0.012667 0.032223 26.372500 -40.985400 0.000008 0.000006 8.007180 18.261900 -61.623700 -11.754300 -0.000006 -0.000006 -0.073747 -0.374076 -32.077800
0.000000 0.000000 0.000000 0.000000 0.000000 -0.000000 155.496000 89.228100 224.439000 111.194000 -74.438100 18.610900 15.735700 0.000005 -0.000001 105.348000 86.075400 -106.266000 8.984550 -0.406207 -0.000000 -0.178594 2.140700 -1.831470 16.377300 -0.000001 -0.000001 2.680460 -3.064970 -0.731801 6.456720 -0.000001 -0.000000 -7.888860 -6.651390 -2.202090 12.994200 -0.242716 4.980390 -94.835100 11.746900 -67.437900 5.348090 -0.000007 -0.000001 -60.678400 -12.558900 11.494300 24.328600 0.000019 0.000005 3.007870 33.116400 -5.494320 22.291600 -0.000001 0.000005 -2.918190 4.984590 7.635600 12.994500 -0.242716 -4.980390 87.799300 5.956710 -69.681000 -5.348130 -0.000001 -0.000004 -68.199000 17.796300 -15.533400 -24.328900 0.000322 -0.000009 -4.462710 -5.726190 -38.023400 -22.291500 -0.000108 -0.000004 4.082380 5.481840 -5.825750 -2.192480 -6.469440 -0.000000 -179.195000 -3.801240 -25.298500 39.081100 -0.000007 -0.000012 0.265306 -0.394576 33.916500 40.985400 -0.000006 -0.000013 -3.465440 14.480300 -67.144700 11.754300 -0.000000 0.000003 0.002428 0.096759 -12.652900 -2.192510 6.469440 -0.000001 175.382000 -11.604600 -170.172000 -39.081100 -0.002282 -0.040193 -0.023082 0.041217 32.618300 -40.985400 0.000008 0.000006 5.633440 18.389700 -54.353300 -11.754300 -0.000006 -0.000006 -0.113486 -0.476851 -36.546200
0.000000 0.000000 0.000000 0.000000 0.000000 -0.000000 151.771000 88.975300 226.895000 113.889000 -75.295900 22.909500 15.735700 0.000005 -0.000001 100.321000 85.338300 -101.562000 8.984550 -0.406207 -0.000000 1.427190 1.738200 -2.502120 16.377300 -0.000001 -0.000001 1.851000 -2.820300 -0.582928 6.456720 -0.000001 -0.000000 -8.950100 -6.085100 -0.532076 12.994200 -0.242716 4.980390 -94.525300 11.534600 -68.405900 5.348090 -0.000007 -0.000001 -60.042400 -11.869100 6.331300 24.328600 0.000019 0.000005 3.269950 27.699000 -7.007920 22.291600 -0.000001 0.000005 2.073450 4.896310 9.444510 12.994500 -0.242716 -4.980390 87.659200 6.222030 -69.335800 -5.348130 -0.000001 -0.000004 -69.545500 13.869800 -11.893500 -24.328900 0.000322 -0.000009 -3.138620 -5.767830 -28.610000 -22.291500 -0.000108 -0.000004 6.524730 5.424810 -3.768960 -2.192480 -6.469440 -0.000000 179.772000 -4.310590 -22.114900 39.081100 -0.000007 -0.000012 0.391473 -0.521468 36.896800 40.985400 -0.000006 -0.000013 -1.590300 14.206200 -70.554300 11.754300 -0.000000 0.000003 0.001728 0.130124 -11.300000 -2.192510 6.469440 -0.000001 173.524000 -9.466830 -173.623000 -39.081100 -0.002282 -0.040193 0.014352 -0.012397 41.784600 -40.985400 0.000008 0.000006 -1.669640 17.016700 -43.485700 -11.754300 -0.000006 -0.000006 -0.060951 -0.334855 -30.405200
